<svg width="41" height="41" viewBox="0 0 41 41" fill="none" xmlns="http://www.w3.org/2000/svg">
<g clip-path="url(#clip0_11_234)">
<path d="M20.5001 40.181C31.1209 40.181 39.7308 31.5711 39.7308 20.9503C39.7308 10.3294 31.1209 1.71948 20.5001 1.71948C9.8792 1.71948 1.26929 10.3294 1.26929 20.9503C1.26929 31.5711 9.8792 40.181 20.5001 40.181Z" stroke="#F5333F"/>
<path d="M17.5503 31.6492C26.2497 31.6492 31.0072 24.4425 31.0072 18.1923C31.0072 17.9878 31.0072 17.7842 30.9937 17.5815C31.9195 16.9117 32.7187 16.0823 33.3537 15.1322C32.4906 15.5151 31.575 15.7663 30.6373 15.8775C31.6244 15.2861 32.363 14.3563 32.716 13.2611C31.7877 13.8119 30.7723 14.2001 29.7133 14.4089C29.0001 13.6506 28.057 13.1485 27.0298 12.9802C26.0026 12.812 24.9484 12.987 24.0306 13.4781C23.1129 13.9693 22.3826 14.7492 21.9527 15.6973C21.5227 16.6452 21.4173 17.7086 21.6527 18.7226C19.7724 18.6283 17.9329 18.1397 16.2537 17.2886C14.5744 16.4374 13.0929 15.2425 11.9053 13.7817C11.3007 14.8229 11.1156 16.0555 11.3877 17.2285C11.6598 18.4014 12.3687 19.4265 13.3701 20.0952C12.6174 20.0726 11.8811 19.8694 11.2234 19.5025V19.5631C11.2237 20.6549 11.6016 21.7132 12.2931 22.5582C12.9846 23.4032 13.9471 23.9831 15.0174 24.1994C14.3212 24.3891 13.5907 24.4168 12.8822 24.2802C13.1844 25.2198 13.7727 26.0417 14.5649 26.6308C15.3571 27.2197 16.3135 27.5465 17.3006 27.5651C16.3198 28.3355 15.1969 28.9052 13.9959 29.2415C12.7949 29.5777 11.5395 29.6738 10.3013 29.5246C12.4639 30.9128 14.9804 31.6494 17.5503 31.6463" fill="#F5333F"/>
</g>
<defs>
<clipPath id="clip0_11_234">
<rect width="40" height="40" fill="white" transform="translate(0.5 0.950195)"/>
</clipPath>
</defs>
</svg>
