<svg width="200" height="33" viewBox="0 0 200 33" fill="none" xmlns="http://www.w3.org/2000/svg">
<path d="M4.64869 31.5354H5.20905V30.975V13.3324L8.90423 31.0475L8.99725 31.4934H9.45278H12.5404H13.0006L13.0901 31.0421L16.5853 13.4072V30.975V31.5354H17.1456H20.1914H20.7518V30.975V2.02484V1.46448H20.1914H15.6908H15.2306L15.1411 1.91583L11.096 22.3122L6.89309 1.91177L6.80093 1.46448H6.34425H1.84368H1.28333V2.02484V30.975V31.5354H1.84368H4.64869ZM36.5974 31.5354H37.0598L37.1477 31.0816L38.1901 25.7003H44.5711L45.6137 31.0816L45.7016 31.5354H46.1638H49.3769H50.0545L49.9274 30.8698L44.3958 1.91967L44.3089 1.46448H43.8456H39.1618H38.6983L38.6113 1.91967L33.0798 30.8698L32.9527 31.5354H33.6302H36.5974ZM65.6994 31.5354H66.2597V30.975V11.2025L72.5754 31.1442L72.6994 31.5354H73.1097H76.4589H77.0192V30.975V2.02484V1.46448H76.4589H73.5964H73.036V2.02484V19.3644L67.4474 1.85446L67.3228 1.46448H66.9136H62.8159H62.2556V2.02484V30.975V31.5354H62.8159H65.6994ZM93.9379 31.5354H94.4982V30.975V2.02484V1.46448H93.9379H90.7089H90.1486V2.02484V30.975V31.5354H90.7089H93.9379ZM111.412 31.5354H111.972V30.975V19.0017H118.052H118.613V18.4414V15.5108V14.9505H118.052H111.972V5.53673H119.67H120.23V4.97637V2.02484V1.46448H119.67H108.183H107.622V2.02484V30.975V31.5354H108.183H111.412ZM137.415 26.901L137.414 26.8999C136.951 26.3173 136.678 25.4278 136.678 24.151V8.84896C136.678 7.58806 136.95 6.69973 137.416 6.1083C137.857 5.5488 138.532 5.23321 139.545 5.23321C140.58 5.23321 141.256 5.55095 141.688 6.10567C142.149 6.69736 142.418 7.58678 142.418 8.84896V24.151C142.418 25.4822 142.142 26.3765 141.687 26.9313C141.249 27.4649 140.571 27.7718 139.545 27.7718C138.531 27.7718 137.856 27.4574 137.415 26.901ZM171.698 31.5354H172.258V30.975V28.0496V27.4893H171.698H164V2.02484V1.46448H163.44H160.211H159.651V2.02484V30.975V31.5354H160.211H171.698ZM184.535 30.975V31.5354H185.095H191.884C194.179 31.5354 195.998 30.8791 197.229 29.4761V29.4755C198.435 28.0951 199 26.1857 199 23.8264V9.23621C199 6.86345 198.436 4.94147 197.231 3.54762V3.54695C196.001 2.12893 194.183 1.46448 191.884 1.46448H185.095H184.535V2.02484V30.975ZM43.9131 21.8165H38.8084L41.3297 8.63141L43.9131 21.8165ZM132.386 9.03212V23.9886C132.386 26.3311 132.972 28.2497 134.208 29.6775C135.464 31.1285 137.275 31.8179 139.545 31.8179C141.841 31.8179 143.67 31.1301 144.934 29.6788C146.178 28.251 146.768 26.3319 146.768 23.9886V9.03212C146.768 6.66683 146.179 4.73752 144.934 3.31517C143.67 1.86771 141.841 1.18188 139.545 1.18188C137.263 1.18188 135.447 1.86832 134.197 3.31749C132.967 4.73987 132.386 6.66827 132.386 9.03212ZM191.84 27.4893H188.89V5.53673H191.799C192.844 5.53673 193.534 5.84059 193.978 6.36319C194.436 6.90349 194.714 7.77398 194.714 9.07398V23.952C194.714 25.2533 194.439 26.1249 193.986 26.6654C193.549 27.1868 192.87 27.4893 191.84 27.4893Z" fill="black" stroke="black" stroke-width="0.856229" stroke-linecap="round"/>
</svg>
