<svg width="200" height="33" viewBox="0 0 200 33" fill="none" xmlns="http://www.w3.org/2000/svg">
<path d="M4.36537 31.5354H4.92572V30.975V13.3324L8.6209 31.0475L8.71392 31.4934H9.16946H12.257H12.7172L12.8067 31.0421L16.3019 13.4072V30.975V31.5354H16.8623H19.9081H20.4684V30.975V2.02484V1.46448H19.9081H15.4074H14.9473L14.8578 1.91583L10.8127 22.3122L6.60976 1.91177L6.51761 1.46448H6.06093H1.56036H1V2.02484V30.975V31.5354H1.56036H4.36537ZM36.3141 31.5354H36.7765L36.8644 31.0816L37.9068 25.7003H44.2878L45.3304 31.0816L45.4183 31.5354H45.8805H49.0936H49.7712L49.644 30.8698L44.1125 1.91967L44.0256 1.46448H43.5622H38.8784H38.4149L38.328 1.91967L32.7965 30.8698L32.6694 31.5354H33.3469H36.3141ZM65.416 31.5354H65.9764V30.975V11.2025L72.2921 31.1442L72.416 31.5354H72.8264H76.1756H76.7359V30.975V2.02484V1.46448H76.1756H73.3131H72.7527V2.02484V19.3644L67.164 1.85446L67.0395 1.46448H66.6302H62.5326H61.9722V2.02484V30.975V31.5354H62.5326H65.416ZM93.6546 31.5354H94.2149V30.975V2.02484V1.46448H93.6546H90.4256H89.8653V2.02484V30.975V31.5354H90.4256H93.6546ZM111.128 31.5354H111.689V30.975V19.0017H117.769H118.33V18.4414V15.5108V14.9505H117.769H111.689V5.53673H119.386H119.947V4.97637V2.02484V1.46448H119.386H107.899H107.339V2.02484V30.975V31.5354H107.899H111.128ZM137.132 26.901L137.131 26.8999C136.667 26.3173 136.395 25.4278 136.395 24.151V8.84896C136.395 7.58806 136.666 6.69973 137.133 6.1083C137.574 5.5488 138.248 5.23321 139.262 5.23321C140.297 5.23321 140.973 5.55095 141.405 6.10567C141.866 6.69736 142.135 7.58678 142.135 8.84896V24.151C142.135 25.4822 141.859 26.3765 141.404 26.9313C140.966 27.4649 140.288 27.7718 139.262 27.7718C138.247 27.7718 137.573 27.4574 137.132 26.901ZM171.414 31.5354H171.975V30.975V28.0496V27.4893H171.414H163.717V2.02484V1.46448H163.156H159.928H159.368V2.02484V30.975V31.5354H159.928H171.414ZM184.251 30.975V31.5354H184.812H191.6C193.896 31.5354 195.715 30.8791 196.946 29.4761V29.4755C198.152 28.0951 198.717 26.1857 198.717 23.8264V9.23621C198.717 6.86345 198.153 4.94147 196.948 3.54762V3.54695C195.718 2.12893 193.899 1.46448 191.6 1.46448H184.812H184.251V2.02484V30.975ZM43.6298 21.8165H38.5251L41.0464 8.63141L43.6298 21.8165ZM132.103 9.03212V23.9886C132.103 26.3311 132.688 28.2497 133.924 29.6775C135.18 31.1285 136.991 31.8179 139.262 31.8179C141.558 31.8179 143.387 31.1301 144.651 29.6788C145.895 28.251 146.484 26.3319 146.484 23.9886V9.03212C146.484 6.66683 145.896 4.73752 144.65 3.31517C143.386 1.86771 141.558 1.18188 139.262 1.18188C136.98 1.18188 135.164 1.86832 133.914 3.31749C132.684 4.73987 132.103 6.66827 132.103 9.03212ZM191.557 27.4893H188.606V5.53673H191.515C192.561 5.53673 193.251 5.84059 193.694 6.36319C194.152 6.90349 194.431 7.77398 194.431 9.07398V23.952C194.431 25.2533 194.155 26.1249 193.702 26.6654C193.265 27.1868 192.586 27.4893 191.557 27.4893Z" fill="white" stroke="black" stroke-width="0.856229" stroke-linecap="round"/>
</svg>
