<svg width="24" height="20" viewBox="0 0 24 20" fill="none" xmlns="http://www.w3.org/2000/svg">
<path d="M7.55027 19.6492C16.2497 19.6492 21.0072 12.4425 21.0072 6.1923C21.0072 5.98784 21.0072 5.78415 20.9937 5.58153C21.9195 4.91169 22.7187 4.08227 23.3537 3.13217C22.4906 3.51509 21.575 3.76634 20.6373 3.87752C21.6244 3.28613 22.363 2.35633 22.716 1.26107C21.7877 1.81189 20.7723 2.20007 19.7133 2.4089C19.0001 1.65061 18.057 1.14849 17.0298 0.980227C16.0026 0.811981 14.9484 0.986965 14.0306 1.47812C13.1129 1.96927 12.3826 2.74921 11.9527 3.69726C11.5227 4.64523 11.4173 5.70861 11.6527 6.72261C9.77242 6.6283 7.93288 6.13969 6.25365 5.28861C4.57439 4.43738 3.0929 3.24253 1.90533 1.78167C1.30068 2.82293 1.11558 4.0555 1.38772 5.22846C1.65984 6.40138 2.36875 7.42646 3.37012 8.09523C2.61736 8.07261 1.88105 7.86938 1.22336 7.50246V7.56307C1.22367 8.65492 1.60161 9.71323 2.29313 10.5582C2.98464 11.4032 3.94713 11.9831 5.01741 12.1994C4.32118 12.3891 3.59075 12.4168 2.88218 12.2802C3.18436 13.2198 3.77269 14.0417 4.56489 14.6308C5.3571 15.2197 6.3135 15.5465 7.30058 15.5651C6.31981 16.3355 5.19693 16.9052 3.99595 17.2415C2.79495 17.5777 1.53947 17.6738 0.30127 17.5246C2.46392 18.9128 4.98041 19.6494 7.55027 19.6463" fill="#F5333F"/>
</svg>
