<svg width="256" height="41" viewBox="0 0 256 41" fill="none" xmlns="http://www.w3.org/2000/svg">
<path d="M8.17367 39.4991H8.88533V38.7875V16.3813L13.5782 38.8796L13.6963 39.4458H14.2749H18.1961H18.7806L18.8942 38.8726L23.3331 16.4763V38.7875V39.4991H24.0448H27.9129H28.6246V38.7875V2.02075V1.30909H27.9129H22.1971H21.6127L21.4991 1.8823L16.3618 27.7857L11.0241 1.87714L10.907 1.30909H10.327H4.61131H3.89966V2.02075V38.7875V39.4991H4.61131H8.17367ZM48.7485 39.4991H49.3358L49.4474 38.9229L50.7713 32.0885H58.8752L60.1993 38.9229L60.3109 39.4991H60.8979H64.9785H65.839L65.6776 38.6539L58.6525 1.88718L58.5421 1.30909H57.9537H52.0053H51.4166L51.3062 1.88718L44.2812 38.6539L44.1197 39.4991H44.9802H48.7485ZM85.708 39.4991H86.4197V38.7875V13.6764L94.4406 39.0024L94.598 39.4991H95.1192H99.3726H100.084V38.7875V2.02075V1.30909H99.3726H95.7373H95.0256V2.02075V24.042L87.928 1.80436L87.7698 1.30909H87.2501H82.0461H81.3344V2.02075V38.7875V39.4991H82.0461H85.708ZM121.571 39.4991H122.283V38.7875V2.02075V1.30909H121.571H117.47H116.759V2.02075V38.7875V39.4991H117.47H121.571ZM143.763 39.4991H144.474V38.7875V23.5814H152.197H152.908V22.8698V19.148V18.4363H152.197H144.474V6.48085H154.25H154.962V5.7692V2.02075V1.30909H154.25H139.662H138.95V2.02075V38.7875V39.4991H139.662H143.763ZM176.787 33.6135L176.786 33.6121C176.197 32.8722 175.851 31.7425 175.851 30.1209V10.6874C175.851 9.08603 176.196 7.95786 176.788 7.20674C177.348 6.49618 178.205 6.09538 179.493 6.09538C180.806 6.09538 181.666 6.49891 182.214 7.2034C182.799 7.95485 183.141 9.08441 183.141 10.6874V30.1209C183.141 31.8116 182.791 32.9474 182.212 33.6519C181.656 34.3296 180.795 34.7194 179.493 34.7194C178.204 34.7194 177.347 34.3201 176.787 33.6135ZM220.326 39.4991H221.038V38.7875V35.0722V34.3605H220.326H210.55V2.02075V1.30909H209.838H205.738H205.027V2.02075V38.7875V39.4991H205.738H220.326ZM236.629 38.7875V39.4991H237.341H245.962C248.878 39.4991 251.187 38.6657 252.751 36.8839V36.8831C254.282 35.13 255 32.705 255 29.7088V11.1792C255 8.16578 254.284 5.72487 252.753 3.95468V3.95382C251.192 2.15294 248.882 1.30909 245.962 1.30909H237.341H236.629V2.02075V38.7875ZM58.0395 27.1562H51.5565L54.7586 10.4111L58.0395 27.1562ZM170.4 10.92V29.9147C170.4 32.8897 171.144 35.3264 172.714 37.1397C174.309 38.9824 176.609 39.858 179.493 39.858C182.408 39.858 184.731 38.9845 186.336 37.1413C187.916 35.328 188.665 32.8907 188.665 29.9147V10.92C188.665 7.91607 187.917 5.46585 186.336 3.65946C184.73 1.82119 182.408 0.950195 179.493 0.950195C176.594 0.950195 174.287 1.82197 172.7 3.66241C171.138 5.46884 170.4 7.9179 170.4 10.92ZM245.907 34.3605H242.16V6.48085H245.854C247.182 6.48085 248.058 6.86675 248.621 7.53046C249.203 8.21664 249.557 9.32216 249.557 10.9732V29.8682C249.557 31.5208 249.207 32.6278 248.632 33.3142C248.077 33.9765 247.214 34.3605 245.907 34.3605Z" fill="white" stroke="white" stroke-width="1.33966" stroke-linecap="round"/>
<path d="M5.27402 39.4991H5.98567V38.7875V16.3813L10.6785 38.8796L10.7967 39.4458H11.3752H15.2965H15.8809L15.9945 38.8726L20.4335 16.4763V38.7875V39.4991H21.1451H25.0133H25.7249V38.7875V2.02075V1.30909H25.0133H19.2975H18.7131L18.5994 1.8823L13.4621 27.7857L8.1244 1.87714L8.00736 1.30909H7.42738H1.71165H1V2.02075V38.7875V39.4991H1.71165H5.27402ZM45.8489 39.4991H46.4361L46.5477 38.9229L47.8716 32.0885H55.9755L57.2996 38.9229L57.4112 39.4991H57.9983H62.0789H62.9394L62.7779 38.6539L55.7529 1.88718L55.6425 1.30909H55.054H49.1056H48.517L48.4066 1.88718L41.3815 38.6539L41.2201 39.4991H42.0806H45.8489ZM82.8084 39.4991H83.52V38.7875V13.6764L91.541 39.0024L91.6984 39.4991H92.2195H96.473H97.1846V38.7875V2.02075V1.30909H96.473H92.8376H92.126V2.02075V24.042L85.0283 1.80436L84.8701 1.30909H84.3504H79.1464H78.4347V2.02075V38.7875V39.4991H79.1464H82.8084ZM118.671 39.4991H119.383V38.7875V2.02075V1.30909H118.671H114.571H113.859V2.02075V38.7875V39.4991H114.571H118.671ZM140.863 39.4991H141.575V38.7875V23.5814H149.297H150.008V22.8698V19.148V18.4363H149.297H141.575V6.48085H151.35H152.062V5.7692V2.02075V1.30909H151.35H136.762H136.051V2.02075V38.7875V39.4991H136.762H140.863ZM173.887 33.6135L173.886 33.6121C173.297 32.8722 172.951 31.7425 172.951 30.1209V10.6874C172.951 9.08603 173.296 7.95786 173.888 7.20674C174.449 6.49618 175.305 6.09538 176.593 6.09538C177.907 6.09538 178.766 6.49891 179.314 7.2034C179.9 7.95485 180.241 9.08441 180.241 10.6874V30.1209C180.241 31.8116 179.891 32.9474 179.313 33.6519C178.756 34.3296 177.895 34.7194 176.593 34.7194C175.304 34.7194 174.447 34.3201 173.887 33.6135ZM217.426 39.4991H218.138V38.7875V35.0722V34.3605H217.426H207.65V2.02075V1.30909H206.939H202.838H202.127V2.02075V38.7875V39.4991H202.838H217.426ZM233.729 38.7875V39.4991H234.441H243.062C245.978 39.4991 248.288 38.6657 249.851 36.8839V36.8831C251.382 35.13 252.1 32.705 252.1 29.7088V11.1792C252.1 8.16578 251.385 5.72487 249.853 3.95468V3.95382C248.292 2.15294 245.982 1.30909 243.062 1.30909H234.441H233.729V2.02075V38.7875ZM55.1398 27.1562H48.6569L51.8589 10.4111L55.1398 27.1562ZM167.5 10.92V29.9147C167.5 32.8897 168.244 35.3264 169.814 37.1397C171.409 38.9824 173.709 39.858 176.593 39.858C179.509 39.858 181.831 38.9845 183.437 37.1413C185.016 35.328 185.765 32.8907 185.765 29.9147V10.92C185.765 7.91607 185.017 5.46585 183.436 3.65946C181.831 1.82119 179.508 0.950195 176.593 0.950195C173.694 0.950195 171.388 1.82197 169.8 3.66241C168.238 5.46884 167.5 7.9179 167.5 10.92ZM243.007 34.3605H239.26V6.48085H242.954C244.282 6.48085 245.159 6.86675 245.722 7.53046C246.303 8.21664 246.657 9.32216 246.657 10.9732V29.8682C246.657 31.5208 246.307 32.6278 245.732 33.3142C245.177 33.9765 244.315 34.3605 243.007 34.3605Z" fill="#212121" stroke="white" stroke-width="1.33966" stroke-linecap="round"/>
<path d="M5.98567 39.4991H5.27402H1.71165H1V38.7874V2.02074V1.30908H1.71165H7.42738H8.00736L8.1244 1.87713L13.4621 27.7857L18.5994 1.88229L18.7131 1.30908H19.2975H25.0133H25.7249V2.02074V38.7874V39.4991H25.0133H21.1451H20.4335V38.7874V16.4763L15.9945 38.8726L15.8809 39.4458H15.2965H11.3752H10.7967L10.6785 38.8796L5.98567 16.3813V38.7874V39.4991Z" fill="#212121" stroke="white" stroke-width="1.33966" stroke-linecap="round"/>
</svg>
