<svg width="28" height="28" viewBox="0 0 28 28" fill="none" xmlns="http://www.w3.org/2000/svg">
<path fill-rule="evenodd" clip-rule="evenodd" d="M25.879 0.104004H2.27986C1.15106 0.104004 0.192383 0.996757 0.192383 2.09653V25.8025C0.192383 26.9035 0.821398 27.7963 1.95018 27.7963H25.5493C26.6793 27.7963 27.8847 26.9035 27.8847 25.8025V2.09653C27.8847 0.996757 27.009 0.104004 25.879 0.104004ZM25.879 0.104004H2.27986C1.15106 0.104004 0.192383 0.996757 0.192383 2.09653V25.8025C0.192383 26.9035 0.821398 27.7963 1.95018 27.7963H25.5493C26.6793 27.7963 27.8847 26.9035 27.8847 25.8025V2.09653C27.8847 0.996757 27.009 0.104004 25.879 0.104004ZM10.7418 10.6534H14.4698V12.5537H14.5105C15.079 11.5291 16.7576 10.4886 18.8333 10.4886C22.817 10.4886 23.9287 12.6037 23.9287 16.5215V23.8403H19.9725V17.2429C19.9725 15.4891 19.2724 13.9502 17.6345 13.9502C15.6459 13.9502 14.6979 15.2965 14.6979 17.5066V23.8403H10.7418V10.6534ZM4.14843 23.8403H8.10454V10.6534H4.14843V23.8403ZM8.599 6.03806C8.59915 6.36271 8.53531 6.6842 8.41115 6.9842C8.28715 7.28419 8.10515 7.55679 7.8756 7.78643C7.64612 8.01608 7.37366 8.19826 7.07375 8.3226C6.77386 8.44693 6.45241 8.51097 6.12775 8.51105C5.80311 8.51114 5.48163 8.44728 5.18166 8.3231C4.88169 8.19893 4.60912 8.01688 4.37952 7.78736C4.14992 7.55783 3.96778 7.28534 3.84351 6.98542C3.71923 6.6855 3.65526 6.36403 3.65523 6.03939C3.65518 5.38388 3.91549 4.7552 4.37892 4.29162C4.84235 3.82803 5.47094 3.5675 6.12644 3.56733C6.78194 3.56714 7.41066 3.82734 7.87434 4.29068C8.33807 4.75402 8.59869 5.38256 8.599 6.03806Z" fill="#F5333F"/>
</svg>
