<svg width="41" height="41" viewBox="0 0 41 41" fill="none" xmlns="http://www.w3.org/2000/svg">
<g clip-path="url(#clip0_11_240)">
<path d="M20.5001 40.181C31.1209 40.181 39.7308 31.5711 39.7308 20.9503C39.7308 10.3294 31.1209 1.71948 20.5001 1.71948C9.8792 1.71948 1.26929 10.3294 1.26929 20.9503C1.26929 31.5711 9.8792 40.181 20.5001 40.181Z" stroke="#F5333F"/>
<path d="M27.1996 26.3083L27.9938 21.2684H23.2295V17.7406C23.2295 16.3294 23.7258 15.2207 25.9093 15.2207H28.1922V10.5841C26.9019 10.3825 25.5124 10.1809 24.2221 10.1809C20.1525 10.1809 17.2741 12.7008 17.2741 17.2366V21.2684H12.8076V26.3083H17.2741V39.4117C18.2667 39.6132 19.5073 40.1809 20.4999 40.1809C21.4925 40.1809 22.2368 39.6132 23.2295 39.4117V26.3083H27.1996Z" fill="#F5333F"/>
</g>
<defs>
<clipPath id="clip0_11_240">
<rect width="40" height="40" fill="white" transform="translate(0.5 0.950195)"/>
</clipPath>
</defs>
</svg>
