<svg width="41" height="41" viewBox="0 0 41 41" fill="none" xmlns="http://www.w3.org/2000/svg">
<g clip-path="url(#clip0_11_237)">
<path d="M20.5001 40.181C31.1209 40.181 39.7308 31.5711 39.7308 20.9503C39.7308 10.3294 31.1209 1.71948 20.5001 1.71948C9.8792 1.71948 1.26929 10.3294 1.26929 20.9503C1.26929 31.5711 9.8792 40.181 20.5001 40.181Z" stroke="#F5333F"/>
<path fill-rule="evenodd" clip-rule="evenodd" d="M33.879 7.104H10.2799C9.15106 7.104 8.19238 7.99676 8.19238 9.09653V32.8025C8.19238 33.9035 8.8214 34.7963 9.95018 34.7963H33.5493C34.6793 34.7963 35.8847 33.9035 35.8847 32.8025V9.09653C35.8847 7.99676 35.009 7.104 33.879 7.104ZM33.879 7.104H10.2799C9.15106 7.104 8.19238 7.99676 8.19238 9.09653V32.8025C8.19238 33.9035 8.8214 34.7963 9.95018 34.7963H33.5493C34.6793 34.7963 35.8847 33.9035 35.8847 32.8025V9.09653C35.8847 7.99676 35.009 7.104 33.879 7.104ZM18.7418 17.6534H22.4698V19.5537H22.5105C23.079 18.5291 24.7576 17.4886 26.8333 17.4886C30.817 17.4886 31.9287 19.6037 31.9287 23.5215V30.8403H27.9725V24.2429C27.9725 22.4891 27.2724 20.9502 25.6345 20.9502C23.6459 20.9502 22.6979 22.2965 22.6979 24.5066V30.8403H18.7418V17.6534ZM12.1484 30.8403H16.1045V17.6534H12.1484V30.8403ZM16.599 13.0381C16.5992 13.3627 16.5353 13.6842 16.4112 13.9842C16.2872 14.2842 16.1052 14.5568 15.8756 14.7864C15.6461 15.0161 15.3737 15.1983 15.0738 15.3226C14.7739 15.4469 14.4524 15.511 14.1278 15.511C13.8031 15.5111 13.4816 15.4473 13.1817 15.3231C12.8817 15.1989 12.6091 15.0169 12.3795 14.7874C12.1499 14.5578 11.9678 14.2853 11.8435 13.9854C11.7192 13.6855 11.6553 13.364 11.6552 13.0394C11.6552 12.3839 11.9155 11.7552 12.3789 11.2916C12.8424 10.828 13.4709 10.5675 14.1264 10.5673C14.7819 10.5671 15.4107 10.8273 15.8743 11.2907C16.3381 11.754 16.5987 12.3826 16.599 13.0381Z" fill="#F5333F"/>
</g>
<defs>
<clipPath id="clip0_11_237">
<rect width="40" height="40" fill="white" transform="translate(0.5 0.950195)"/>
</clipPath>
</defs>
</svg>
